<svg xmlns="http://www.w3.org/2000/svg" width="980" height="780" viewBox="0 0 980 780">
  <rect width="100%" height="100%" fill="#f9f9f6"/>
  <rect x="80" y="80" width="820" height="510" fill="#ffffff" stroke="#cccccc" stroke-width="1"/>
  <text x="80" y="38" font-family="Arial, sans-serif" font-size="20" font-weight="700" fill="#202020">Preliminary experiment — v14 path comparison (camera angle 60°)</text>
  <text x="80" y="62" font-family="Arial, sans-serif" font-size="13" fill="#555">115 query frames | mean error 14.7 m | median 13.1 m | P90 27.6 m</text>
  <polyline points="80.0,227.0 80.0,227.1 80.1,227.1 80.3,227.1 80.4,227.3 80.6,227.3 80.9,227.4 81.1,227.6 81.5,227.7 81.8,227.9 82.3,228.0 82.7,228.3 83.2,228.5 83.7,228.8 84.3,228.9 85.0,229.2 85.6,229.5 86.4,229.8 87.1,230.3 87.9,230.6 88.8,231.1 89.7,231.4 90.7,231.8 91.6,232.3 92.8,232.7 93.8,233.2 94.9,233.8 96.1,234.2 97.4,234.8 98.6,235.4 99.9,235.9 101.2,236.5 102.6,237.1 103.9,237.7 105.3,238.3 106.5,238.9 108.0,239.5 109.2,240.1 110.6,240.7 111.9,241.3 113.3,241.9 114.6,242.5 115.9,243.1 117.3,243.7 118.5,244.3 119.8,244.9 121.2,245.5 122.5,246.0 123.9,246.6 125.2,247.2 126.6,247.8 127.9,248.4 129.3,249.0 130.5,249.6 131.9,250.2 133.2,250.8 134.5,251.4 135.8,252.0 137.2,252.6 138.5,253.2 139.9,253.8 141.1,254.3 142.5,254.9 143.8,255.5 145.1,256.1 146.4,256.7 147.8,257.3 149.1,257.9 150.5,258.5 151.7,259.1 153.1,259.7 154.4,260.1 155.8,260.7 157.1,261.3 158.4,261.9 159.6,262.5 161.0,263.1 162.3,263.8 163.7,264.4 165.0,265.0 166.3,265.6 167.6,266.0 169.0,266.6 170.2,267.2 171.5,267.8 172.8,268.4 174.1,269.0 175.5,269.6 176.7,270.2 178.0,270.8 179.4,271.4 180.7,271.9 182.0,272.5 183.3,273.1 184.7,273.7 185.9,274.3 187.2,274.9 188.5,275.4 189.8,276.0 191.2,276.6 192.4,277.2 193.9,277.8 195.1,278.4 196.4,279.0 197.8,279.6 199.1,280.2 200.5,280.8 201.8,281.4 203.0,282.0 204.3,282.6 205.7,283.2 207.0,283.8 208.3,284.4 209.7,285.0 211.0,285.6 212.2,286.1 213.6,286.7 214.9,287.3 216.2,287.9 217.5,288.5 218.9,289.1 220.1,289.7 221.6,290.1 222.8,290.7 224.1,291.3 225.4,291.9 226.8,292.5 228.1,293.1 229.5,293.7 230.7,294.3 232.1,294.9 233.4,295.5 234.8,296.1 236.1,296.6 237.4,297.2 238.7,297.8 240.1,298.4 241.3,299.0 242.7,299.6 244.0,300.2 245.3,300.8 246.6,301.4 248.0,302.0 249.2,302.5 250.5,303.1 251.8,303.7 253.2,304.3 254.4,304.9 255.8,305.5 257.0,305.9 258.3,306.5 259.6,307.1 261.0,307.7 262.3,308.4 263.5,308.8 264.8,309.4 266.2,310.0 267.5,310.6 268.8,311.2 270.1,311.8 271.3,312.4 272.6,312.9 274.0,313.5 275.3,314.1 276.6,314.7 277.8,315.3 279.2,315.9 280.5,316.5 281.8,317.1 283.1,317.5 284.5,318.1 285.8,318.7 287.0,319.4 288.3,320.0 289.7,320.6 291.0,321.0 292.3,321.6 293.5,322.2 294.9,322.8 296.2,323.4 297.5,324.0 298.8,324.5 300.0,325.1 301.3,325.7 302.7,326.3 304.0,326.9 305.3,327.5 306.6,327.9 307.8,328.5 309.1,329.1 310.5,329.7 311.7,330.4 313.1,331.0 314.3,331.4 315.6,332.0 316.9,332.6 318.3,333.2 319.4,333.7 320.7,334.3 322.1,334.9 323.4,335.5 324.7,336.1 326.1,336.5 327.2,337.1 328.6,337.7 329.9,338.3 331.2,338.9 332.5,339.4 333.7,340.0 335.1,340.6 336.4,341.2 337.7,341.8 339.0,342.3 340.3,342.9 341.7,343.5 342.9,344.1 344.2,344.7 345.5,345.3 346.9,345.9 348.2,346.3 349.4,346.9 350.7,347.5 352.1,348.1 353.4,348.7 354.7,349.3 356.0,349.9 357.4,350.4 358.6,351.0 359.9,351.6 361.2,352.2 362.6,352.8 363.9,353.4 365.1,354.0 366.4,354.5 367.8,355.1 369.1,355.7 370.4,356.3 371.7,356.9 373.1,357.5 374.3,358.1 375.7,358.7 377.0,359.1 378.3,359.7 379.6,360.3 381.0,360.9 382.2,361.5 383.5,362.1 384.8,362.7 386.2,363.4 387.5,363.8 388.9,364.4 390.2,365.0 391.4,365.6 392.7,366.2 394.1,366.8 395.4,367.3 396.7,367.9 397.9,368.5 399.3,369.1 400.6,369.7 401.9,370.3 403.2,370.7 404.6,371.3 405.9,371.9 407.3,372.5 408.5,373.1 409.8,373.7 411.1,374.3 412.5,375.0 413.8,375.4 415.0,376.0 416.3,376.6 417.7,377.2 419.0,377.8 420.3,378.4 421.6,378.9 423.0,379.5 424.2,380.1 425.5,380.7 426.8,381.3 428.2,381.9 429.5,382.5 430.7,383.1 432.0,383.5 433.4,384.1 434.7,384.7 436.0,385.3 437.3,386.0 438.7,386.6 439.9,387.0 441.2,387.6 442.5,388.2 443.9,388.8 445.2,389.4 446.4,390.0 447.7,390.5 449.1,391.1 450.4,391.7 451.7,392.3 453.0,392.9 454.4,393.5 455.6,394.1 456.9,394.7 458.2,395.1 459.6,395.7 460.9,396.3 462.1,397.0 463.4,397.6 464.8,398.2 466.1,398.6 467.4,399.2 468.7,399.8 470.1,400.4 471.3,401.0 472.6,401.6 473.9,402.1 475.3,402.7 476.6,403.3 477.8,403.9 479.1,404.5 480.5,405.1 481.8,405.7 483.1,406.3 484.4,406.7 485.8,407.3 487.0,408.0 488.3,408.6 489.6,409.2 491.0,409.8 492.3,410.2 493.5,410.8 494.8,411.4 496.2,412.0 497.5,412.6 498.8,413.2 500.1,413.8 501.5,414.4 502.7,414.9 504.0,415.5 505.3,416.1 506.7,416.7 508.0,417.3 509.2,417.7 510.5,418.3 511.9,419.0 513.2,419.6 514.5,420.2 515.8,420.8 517.2,421.4 518.4,421.8 519.7,422.4 521.0,423.0 522.4,423.6 523.5,424.2 524.9,424.8 526.2,425.3 527.5,425.9 528.8,426.5 530.2,427.1 531.5,427.5 532.7,428.1 534.0,428.7 535.4,429.3 536.7,430.0 538.0,430.6 539.2,431.0 540.6,431.6 541.9,432.2 543.2,432.8 544.5,433.4 545.9,434.0 547.2,434.5 548.4,435.1 549.7,435.7 551.1,436.3 552.4,436.9 553.7,437.5 554.9,438.1 556.3,438.7 557.6,439.1 558.9,439.7 560.2,440.3 561.6,441.0 562.9,441.6 564.1,442.0 565.4,442.6 566.8,443.2 568.1,443.8 569.4,444.4 570.6,444.9 571.9,445.5 573.2,446.1 574.6,446.7 575.9,447.3 577.1,447.9 578.4,448.3 579.7,448.9 581.0,449.5 582.4,450.1 583.7,450.7 584.9,451.3 586.2,451.8 587.5,452.4 588.8,453.0 590.2,453.6 591.4,454.2 592.7,454.8 594.0,455.3 595.4,455.9 596.7,456.5 598.0,457.1 599.2,457.7 600.5,458.3 601.8,458.7 603.2,459.3 604.5,459.9 605.7,460.5 607.0,461.1 608.4,461.7 609.7,462.2 611.0,462.8 612.2,463.4 613.7,464.0 614.9,464.5 616.2,465.1 617.5,465.7 618.9,466.3 620.2,466.9 621.4,467.5 622.7,468.1 624.0,468.7 625.3,469.1 626.7,469.7 627.9,470.3 629.2,470.9 630.5,471.5 631.9,472.1 633.2,472.7 634.5,473.3 635.7,473.8 637.0,474.4 638.3,475.0 639.7,475.6 641.0,476.1 642.2,476.7 643.5,477.3 644.9,477.9 646.2,478.5 647.5,479.1 648.8,479.5 650.0,480.1 651.3,480.7 652.7,481.3 654.0,481.9 655.3,482.5 656.5,483.0 657.8,483.6 659.1,484.2 660.5,484.8 661.8,485.4 663.0,486.0 664.3,486.5 665.7,487.1 667.0,487.7 668.3,488.3 669.6,488.9 671.0,489.3 672.2,489.9 673.5,490.5 674.8,491.1 676.1,491.7 677.3,492.2 678.7,492.8 680.0,493.4 681.3,494.0 682.6,494.6 684.0,495.0 685.1,495.6 686.5,496.2 687.8,496.9 689.1,497.5 690.4,497.9 691.8,498.5 693.0,499.1 694.3,499.7 695.6,500.3 696.9,500.9 698.1,501.4 699.6,502.0 700.8,502.6 702.1,503.2 703.4,503.6 704.8,504.2 705.9,504.8 707.3,505.4 708.6,506.0 709.9,506.6 711.2,507.1 712.6,507.7 713.8,508.3 715.1,508.9 716.4,509.5 717.8,510.1 719.0,510.6 720.4,511.2 721.6,511.8 722.9,512.4 724.2,513.0 725.6,513.4 726.9,514.0 728.1,514.6 729.4,515.2 730.7,515.8 732.0,516.4 733.4,517.0 734.7,517.5 735.9,518.1 737.2,518.7 738.6,519.3 739.9,519.8 741.2,520.4 742.4,521.0 743.8,521.6 745.1,522.2 746.4,522.8 747.7,523.2 748.9,523.8 750.2,524.4 751.6,525.0 752.9,525.6 754.2,526.2 755.5,526.8 756.7,527.4 758.0,527.9 759.4,528.5 760.7,529.1 762.0,529.7 763.2,530.3 764.6,530.9 765.8,531.5 767.2,532.0 768.5,532.6 769.8,533.2 771.0,533.8 772.3,534.2 773.5,534.8 774.7,535.3 775.9,535.9 777.0,536.3 778.0,536.8 779.2,537.4 780.2,537.8 781.1,538.3 782.1,538.6 783.0,539.0 783.9,539.5 784.8,539.8 785.6,540.2 786.3,540.5 787.1,540.9 787.9,541.3 788.5,541.6 789.3,541.9 789.8,542.1 790.4,542.4 791.1,542.7 791.6,542.8 792.1,543.1 792.6,543.3 793.0,543.6 793.5,543.7 793.9,543.9 794.3,544.0 794.5,544.2 794.9,544.3 795.3,544.5 795.7,544.6 796.0,544.8 796.4,544.9 796.7,545.1 797.1,545.2 797.5,545.4 797.8,545.5 798.2,545.7 798.6,546.0 798.9,546.1 799.2,546.3 799.6,546.4 800.0,546.6 800.4,546.7 800.8,546.9 801.2,547.0 801.4,547.2 801.8,547.3 802.2,547.5 802.6,547.6 802.9,547.8 803.3,547.9 803.7,548.1 804.0,548.2 804.3,548.4 804.6,548.5 804.9,548.7 805.1,548.8 805.5,549.0 805.6,549.0 806.0,549.1 806.3,549.3 806.5,549.4 806.8,549.6 807.0,549.7 807.3,549.7 807.5,549.9 807.8,550.0 808.0,550.2 808.3,550.2 808.6,550.3 808.8,550.5 808.9,550.5 809.2,550.6 809.4,550.8 809.7,550.8 810.0,550.9 810.3,551.1 810.6,551.2 810.9,551.2 811.1,551.4 811.5,551.5 811.7,551.7 812.0,551.7 812.3,551.9 812.5,552.0 812.8,552.2 813.0,552.3 813.3,552.3 813.5,552.5 813.9,552.6 814.2,552.8 814.4,552.9 814.8,553.1 815.1,553.2 815.3,553.4 815.7,553.5 816.0,553.7 816.2,553.7 816.6,553.8 816.9,554.0 817.1,554.1 817.4,554.3 817.7,554.4 818.1,554.6 818.4,554.7 818.8,554.9 819.0,554.9 819.3,555.0 819.7,555.2 819.9,555.3 820.2,555.5 820.6,555.6 820.8,555.8 821.1,555.9 821.4,556.1 821.8,556.2 822.2,556.4 822.5,556.5 822.9,556.5 823.2,556.7 823.5,556.8 823.9,557.0 824.0,557.0 824.3,557.1 824.4,557.1 824.5,557.1 824.5,557.3 824.6,557.3 824.4,557.3 824.6,557.4 824.8,557.1 824.9,557.0 825.0,556.8 825.0,556.7 825.3,556.4 825.4,556.2 825.5,555.9 825.7,555.6 825.8,555.5 825.9,555.2 826.0,555.0 826.0,554.9 826.2,554.9 826.2,554.7 826.0,555.2 826.2,555.0 826.3,555.2 826.3,555.0 826.2,555.2 826.3,555.3 826.4,555.5 826.4,555.6 826.6,555.8 826.7,555.9 826.8,556.1 827.1,556.2 827.2,556.5 827.3,556.7 827.4,556.8 827.6,557.0 827.8,557.1 828.0,557.3 828.0,557.4 828.1,557.6 828.2,557.7 828.2,557.9 828.3,557.9 828.3,558.0 828.5,558.0 828.5,558.2 828.6,558.3 828.6,558.5 828.7,558.6 828.7,558.8 828.8,558.8 828.6,558.8 828.5,558.9 828.3,558.9 828.1,559.1 828.0,559.2 827.8,559.2 827.6,559.4 827.4,559.4 827.3,559.5 827.2,559.5 827.1,559.7 827.3,559.4 827.6,559.2 827.8,559.1 828.0,558.9 828.2,558.8 828.5,558.5 828.7,558.3 829.0,558.2 829.2,558.0 829.4,558.0 829.5,557.9 829.6,557.9 829.6,557.7 829.7,557.7 829.7,557.6 829.9,557.4 830.0,557.4 830.1,557.3 830.3,557.1 830.4,557.1 830.5,557.1 830.6,557.3 830.8,557.4 830.9,557.6 831.1,557.7 831.3,558.0 831.5,558.3 831.7,558.6 831.9,558.9 832.2,559.4 832.4,559.7 832.7,560.1 832.9,560.6 833.2,560.9 833.4,561.3 833.7,561.6 833.8,561.8 834.0,562.1 834.1,562.2 834.1,562.4 834.2,562.4 834.2,562.5 834.2,562.7 834.1,562.7 834.0,562.7 833.8,562.7 833.8,562.5 834.0,562.5 834.1,562.5 833.8,562.9 833.7,563.0 833.6,563.2 833.4,563.3 833.3,563.3 833.3,563.5 833.2,563.5 833.1,563.6 833.1,563.8 832.9,563.8 833.2,563.8 833.2,563.9 833.3,563.9 833.3,564.1 833.4,564.1 833.4,564.2 833.6,564.2 833.6,564.4 833.7,564.5 833.7,564.7 833.8,564.7 833.8,564.8 834.0,565.0 834.1,565.1 834.2,565.3 834.2,565.4 834.3,565.4 834.3,565.6 834.3,565.7 834.2,565.9 834.1,566.0 834.0,566.2 833.8,566.3 833.7,566.5 833.7,566.6 833.6,566.6 833.4,566.6 833.4,566.5 833.6,566.5" fill="none" stroke="#1b6ca8" stroke-width="2.5" stroke-linejoin="round" stroke-linecap="round" stroke-dasharray="6 4" opacity="0.7"/>
  <polyline points="162.6,268.8 165.9,266.3 172.4,268.4 183.1,273.1 196.5,278.8 209.6,285.0 222.8,291.0 236.3,296.5 249.5,302.7 262.6,308.3 275.6,314.3 288.6,320.7 302.0,326.1 315.3,331.8 328.7,337.6 341.6,343.6 354.6,349.5 367.7,355.1 380.7,361.1 393.7,366.6 406.8,372.1 419.8,377.8 432.7,384.0 445.6,390.1 459.0,395.4 472.1,401.2 485.3,407.0 498.4,412.9 511.4,418.8 524.5,424.5 537.5,430.4 550.7,436.1 563.7,442.0 576.9,447.7 589.9,453.6 603.2,458.9 616.0,465.2 629.1,470.9 642.4,476.2 655.2,482.5 668.2,488.4 681.4,493.7 694.2,499.9 707.2,505.7 720.4,511.0 733.3,517.2 746.3,523.1 759.5,528.4 772.5,534.1 785.5,539.8 798.5,545.6 811.6,551.3 824.4,557.4 837.2,563.9 850.4,569.0 862.8,573.9 871.4,579.1 877.7,580.9 881.8,581.4 885.2,583.6 888.3,586.1 889.5,587.7 892.3,584.1 892.9,586.4 893.0,590.0 895.1,589.4 898.0,587.4 900.0,587.9 898.3,587.7 895.9,586.7 893.9,585.8 891.8,585.1 889.7,584.2 887.5,583.3 885.4,582.5 883.2,581.5 881.0,580.6 857.4,506.9 854.6,506.0 853.3,508.3 852.2,510.3 851.2,512.5 849.9,514.4 848.7,516.4 847.5,518.4 846.3,520.4 845.0,522.3 843.8,524.3 846.9,581.3 846.3,581.6 844.4,581.7 843.4,580.3 841.9,578.4 839.2,577.2 843.1,547.7 842.7,547.4 841.5,548.6 839.7,567.5 840.4,571.5 841.3,574.4 840.5,573.3 839.0,571.2 838.0,569.3 837.5,569.7 836.8,569.8 835.7,568.0 835.2,567.1 835.7,568.0 836.2,568.7 835.5,569.6 834.6,568.3 834.1,567.3 833.9,567.0 833.6,566.7 833.4,566.5" fill="none" stroke="#1a9850" stroke-width="2.5" stroke-linejoin="round" stroke-linecap="round" opacity="1.0"/>
  <polyline points="159.6,279.3 162.4,281.7 165.5,284.3 170.0,288.0 176.4,292.1 184.1,298.1 193.0,305.0 203.5,312.2 215.2,320.1 228.4,328.2 243.9,337.0 260.7,345.6 278.1,353.6 295.8,360.8 313.6,367.1 331.1,372.0 348.0,375.6 364.0,378.0 379.0,379.2 392.5,380.8 405.6,382.2 418.4,384.2 430.3,386.6 441.8,390.3 453.4,394.3 465.2,399.6 477.2,406.6 489.9,414.3 503.1,422.9 516.4,431.8 529.7,440.7 543.4,449.4 557.1,458.0 570.5,466.0 584.1,473.6 597.9,480.3 611.4,486.4 625.0,492.3 637.9,496.4 650.6,501.0 663.4,505.3 675.9,509.4 688.5,513.5 701.0,517.3 713.7,521.0 726.7,524.5 739.6,527.9 752.6,531.0 765.4,533.9 778.0,536.6 790.4,538.9 802.0,541.5 813.4,544.4 823.8,547.6 833.4,551.3 842.3,555.1 850.3,558.8 857.7,562.6 864.1,566.2 869.6,570.1 874.3,573.9 877.9,577.4 881.1,580.7 883.5,583.7 885.1,586.1 886.0,588.1 886.0,589.5 886.0,590.0 885.0,589.8 883.1,588.8 880.4,585.9 876.9,582.6 872.9,578.6 868.4,574.1 863.5,569.2 858.2,563.8 852.8,558.3 847.6,553.0 842.6,547.8 838.2,543.2 834.2,539.3 830.8,536.1 827.9,533.6 825.6,532.0 824.0,531.2 823.1,531.2 822.5,532.1 822.3,533.5 822.7,535.2 823.3,537.6 823.8,539.6 824.2,541.6 824.6,543.6 825.0,545.5 825.4,547.2 825.7,548.9 826.1,550.4 826.4,551.9 826.7,553.3 827.0,554.6 827.5,555.8 827.9,557.0 828.4,558.2 829.0,559.3 829.6,560.4 830.2,561.5 830.7,562.3 831.3,563.1 831.8,563.9 832.4,564.6 832.9,565.2 833.3,565.7 833.8,566.1 834.2,566.5 834.6,566.9" fill="none" stroke="#d73027" stroke-width="2.5" stroke-linejoin="round" stroke-linecap="round" opacity="1.0"/>
  <circle cx="80.0" cy="227.0" r="5" fill="#1b6ca8"/>
  <circle cx="833.6" cy="566.5" r="5" fill="#1b6ca8"/>
  <circle cx="162.6" cy="268.8" r="5" fill="#1a9850"/>
  <circle cx="833.4" cy="566.5" r="5" fill="#1a9850"/>
  <circle cx="159.6" cy="279.3" r="5" fill="#d73027"/>
  <circle cx="834.6" cy="566.9" r="5" fill="#d73027"/>
  <line x1="162.6" y1="268.8" x2="159.6" y2="279.3" stroke="#888" stroke-width="1" opacity="0.23"/>
  <line x1="165.9" y1="266.3" x2="162.4" y2="281.7" stroke="#888" stroke-width="1" opacity="0.29"/>
  <line x1="172.4" y1="268.4" x2="165.5" y2="284.3" stroke="#888" stroke-width="1" opacity="0.31"/>
  <line x1="183.1" y1="273.1" x2="170.0" y2="288.0" stroke="#888" stroke-width="1" opacity="0.34"/>
  <line x1="196.5" y1="278.8" x2="176.4" y2="292.1" stroke="#888" stroke-width="1" opacity="0.40"/>
  <line x1="209.6" y1="285.0" x2="184.1" y2="298.1" stroke="#888" stroke-width="1" opacity="0.45"/>
  <line x1="222.8" y1="291.0" x2="193.0" y2="305.0" stroke="#888" stroke-width="1" opacity="0.51"/>
  <line x1="236.3" y1="296.5" x2="203.5" y2="312.2" stroke="#888" stroke-width="1" opacity="0.55"/>
  <line x1="249.5" y1="302.7" x2="215.2" y2="320.1" stroke="#888" stroke-width="1" opacity="0.57"/>
  <line x1="262.6" y1="308.3" x2="228.4" y2="328.2" stroke="#888" stroke-width="1" opacity="0.59"/>
  <line x1="275.6" y1="314.3" x2="243.9" y2="337.0" stroke="#888" stroke-width="1" opacity="0.58"/>
  <line x1="288.6" y1="320.7" x2="260.7" y2="345.6" stroke="#888" stroke-width="1" opacity="0.56"/>
  <line x1="302.0" y1="326.1" x2="278.1" y2="353.6" stroke="#888" stroke-width="1" opacity="0.55"/>
  <line x1="315.3" y1="331.8" x2="295.8" y2="360.8" stroke="#888" stroke-width="1" opacity="0.53"/>
  <line x1="328.7" y1="337.6" x2="313.6" y2="367.1" stroke="#888" stroke-width="1" opacity="0.51"/>
  <line x1="341.6" y1="343.6" x2="331.1" y2="372.0" stroke="#888" stroke-width="1" opacity="0.47"/>
  <line x1="354.6" y1="349.5" x2="348.0" y2="375.6" stroke="#888" stroke-width="1" opacity="0.43"/>
  <line x1="367.7" y1="355.1" x2="364.0" y2="378.0" stroke="#888" stroke-width="1" opacity="0.39"/>
  <line x1="380.7" y1="361.1" x2="379.0" y2="379.2" stroke="#888" stroke-width="1" opacity="0.32"/>
  <line x1="393.7" y1="366.6" x2="392.5" y2="380.8" stroke="#888" stroke-width="1" opacity="0.28"/>
  <line x1="406.8" y1="372.1" x2="405.6" y2="382.2" stroke="#888" stroke-width="1" opacity="0.22"/>
  <line x1="419.8" y1="377.8" x2="418.4" y2="384.2" stroke="#888" stroke-width="1" opacity="0.18"/>
  <line x1="432.7" y1="384.0" x2="430.3" y2="386.6" stroke="#888" stroke-width="1" opacity="0.14"/>
  <line x1="445.6" y1="390.1" x2="441.8" y2="390.3" stroke="#888" stroke-width="1" opacity="0.15"/>
  <line x1="459.0" y1="395.4" x2="453.4" y2="394.3" stroke="#888" stroke-width="1" opacity="0.17"/>
  <line x1="472.1" y1="401.2" x2="465.2" y2="399.6" stroke="#888" stroke-width="1" opacity="0.19"/>
  <line x1="485.3" y1="407.0" x2="477.2" y2="406.6" stroke="#888" stroke-width="1" opacity="0.20"/>
  <line x1="498.4" y1="412.9" x2="489.9" y2="414.3" stroke="#888" stroke-width="1" opacity="0.21"/>
  <line x1="511.4" y1="418.8" x2="503.1" y2="422.9" stroke="#888" stroke-width="1" opacity="0.21"/>
  <line x1="524.5" y1="424.5" x2="516.4" y2="431.8" stroke="#888" stroke-width="1" opacity="0.23"/>
  <line x1="537.5" y1="430.4" x2="529.7" y2="440.7" stroke="#888" stroke-width="1" opacity="0.26"/>
  <line x1="550.7" y1="436.1" x2="543.4" y2="449.4" stroke="#888" stroke-width="1" opacity="0.29"/>
  <line x1="563.7" y1="442.0" x2="557.1" y2="458.0" stroke="#888" stroke-width="1" opacity="0.31"/>
  <line x1="576.9" y1="447.7" x2="570.5" y2="466.0" stroke="#888" stroke-width="1" opacity="0.34"/>
  <line x1="589.9" y1="453.6" x2="584.1" y2="473.6" stroke="#888" stroke-width="1" opacity="0.36"/>
  <line x1="603.2" y1="458.9" x2="597.9" y2="480.3" stroke="#888" stroke-width="1" opacity="0.37"/>
  <line x1="616.0" y1="465.2" x2="611.4" y2="486.4" stroke="#888" stroke-width="1" opacity="0.37"/>
  <line x1="629.1" y1="470.9" x2="625.0" y2="492.3" stroke="#888" stroke-width="1" opacity="0.37"/>
  <line x1="642.4" y1="476.2" x2="637.9" y2="496.4" stroke="#888" stroke-width="1" opacity="0.35"/>
  <line x1="655.2" y1="482.5" x2="650.6" y2="501.0" stroke="#888" stroke-width="1" opacity="0.33"/>
  <line x1="668.2" y1="488.4" x2="663.4" y2="505.3" stroke="#888" stroke-width="1" opacity="0.32"/>
  <line x1="681.4" y1="493.7" x2="675.9" y2="509.4" stroke="#888" stroke-width="1" opacity="0.30"/>
  <line x1="694.2" y1="499.9" x2="688.5" y2="513.5" stroke="#888" stroke-width="1" opacity="0.28"/>
  <line x1="707.2" y1="505.7" x2="701.0" y2="517.3" stroke="#888" stroke-width="1" opacity="0.26"/>
  <line x1="720.4" y1="511.0" x2="713.7" y2="521.0" stroke="#888" stroke-width="1" opacity="0.25"/>
  <line x1="733.3" y1="517.2" x2="726.7" y2="524.5" stroke="#888" stroke-width="1" opacity="0.22"/>
  <line x1="746.3" y1="523.1" x2="739.6" y2="527.9" stroke="#888" stroke-width="1" opacity="0.20"/>
  <line x1="759.5" y1="528.4" x2="752.6" y2="531.0" stroke="#888" stroke-width="1" opacity="0.19"/>
  <line x1="772.5" y1="534.1" x2="765.4" y2="533.9" stroke="#888" stroke-width="1" opacity="0.19"/>
  <line x1="785.5" y1="539.8" x2="778.0" y2="536.6" stroke="#888" stroke-width="1" opacity="0.20"/>
  <line x1="798.5" y1="545.6" x2="790.4" y2="538.9" stroke="#888" stroke-width="1" opacity="0.23"/>
  <line x1="811.6" y1="551.3" x2="802.0" y2="541.5" stroke="#888" stroke-width="1" opacity="0.27"/>
  <line x1="824.4" y1="557.4" x2="813.4" y2="544.4" stroke="#888" stroke-width="1" opacity="0.31"/>
  <line x1="837.2" y1="563.9" x2="823.8" y2="547.6" stroke="#888" stroke-width="1" opacity="0.36"/>
  <line x1="850.4" y1="569.0" x2="833.4" y2="551.3" stroke="#888" stroke-width="1" opacity="0.40"/>
  <line x1="862.8" y1="573.9" x2="842.3" y2="555.1" stroke="#888" stroke-width="1" opacity="0.44"/>
  <line x1="871.4" y1="579.1" x2="850.3" y2="558.8" stroke="#888" stroke-width="1" opacity="0.46"/>
  <line x1="877.7" y1="580.9" x2="857.7" y2="562.6" stroke="#888" stroke-width="1" opacity="0.43"/>
  <line x1="881.8" y1="581.4" x2="864.1" y2="566.2" stroke="#888" stroke-width="1" opacity="0.39"/>
  <line x1="885.2" y1="583.6" x2="869.6" y2="570.1" stroke="#888" stroke-width="1" opacity="0.35"/>
  <line x1="888.3" y1="586.1" x2="874.3" y2="573.9" stroke="#888" stroke-width="1" opacity="0.33"/>
  <line x1="889.5" y1="587.7" x2="877.9" y2="577.4" stroke="#888" stroke-width="1" opacity="0.29"/>
  <line x1="892.3" y1="584.1" x2="881.1" y2="580.7" stroke="#888" stroke-width="1" opacity="0.24"/>
  <line x1="892.9" y1="586.4" x2="883.5" y2="583.7" stroke="#888" stroke-width="1" opacity="0.22"/>
  <line x1="893.0" y1="590.0" x2="885.1" y2="586.1" stroke="#888" stroke-width="1" opacity="0.21"/>
  <line x1="895.1" y1="589.4" x2="886.0" y2="588.1" stroke="#888" stroke-width="1" opacity="0.21"/>
  <line x1="898.0" y1="587.4" x2="886.0" y2="589.5" stroke="#888" stroke-width="1" opacity="0.25"/>
  <line x1="900.0" y1="587.9" x2="886.0" y2="590.0" stroke="#888" stroke-width="1" opacity="0.27"/>
  <line x1="898.3" y1="587.7" x2="885.0" y2="589.8" stroke="#888" stroke-width="1" opacity="0.27"/>
  <line x1="895.9" y1="586.7" x2="883.1" y2="588.8" stroke="#888" stroke-width="1" opacity="0.26"/>
  <line x1="893.9" y1="585.8" x2="880.4" y2="585.9" stroke="#888" stroke-width="1" opacity="0.27"/>
  <line x1="891.8" y1="585.1" x2="876.9" y2="582.6" stroke="#888" stroke-width="1" opacity="0.29"/>
  <line x1="889.7" y1="584.2" x2="872.9" y2="578.6" stroke="#888" stroke-width="1" opacity="0.32"/>
  <line x1="887.5" y1="583.3" x2="868.4" y2="574.1" stroke="#888" stroke-width="1" opacity="0.36"/>
  <line x1="885.4" y1="582.5" x2="863.5" y2="569.2" stroke="#888" stroke-width="1" opacity="0.42"/>
  <line x1="883.2" y1="581.5" x2="858.2" y2="563.8" stroke="#888" stroke-width="1" opacity="0.48"/>
  <line x1="881.0" y1="580.6" x2="852.8" y2="558.3" stroke="#888" stroke-width="1" opacity="0.54"/>
  <line x1="857.4" y1="506.9" x2="847.6" y2="553.0" stroke="#888" stroke-width="1" opacity="0.60"/>
  <line x1="854.6" y1="506.0" x2="842.6" y2="547.8" stroke="#888" stroke-width="1" opacity="0.60"/>
  <line x1="853.3" y1="508.3" x2="838.2" y2="543.2" stroke="#888" stroke-width="1" opacity="0.57"/>
  <line x1="852.2" y1="510.3" x2="834.2" y2="539.3" stroke="#888" stroke-width="1" opacity="0.52"/>
  <line x1="851.2" y1="512.5" x2="830.8" y2="536.1" stroke="#888" stroke-width="1" opacity="0.48"/>
  <line x1="849.9" y1="514.4" x2="827.9" y2="533.6" stroke="#888" stroke-width="1" opacity="0.46"/>
  <line x1="848.7" y1="516.4" x2="825.6" y2="532.0" stroke="#888" stroke-width="1" opacity="0.44"/>
  <line x1="847.5" y1="518.4" x2="824.0" y2="531.2" stroke="#888" stroke-width="1" opacity="0.43"/>
  <line x1="846.3" y1="520.4" x2="823.1" y2="531.2" stroke="#888" stroke-width="1" opacity="0.41"/>
  <line x1="845.0" y1="522.3" x2="822.5" y2="532.1" stroke="#888" stroke-width="1" opacity="0.40"/>
  <line x1="843.8" y1="524.3" x2="822.3" y2="533.5" stroke="#888" stroke-width="1" opacity="0.39"/>
  <line x1="846.9" y1="581.3" x2="822.7" y2="535.2" stroke="#888" stroke-width="1" opacity="0.60"/>
  <line x1="846.3" y1="581.6" x2="823.3" y2="537.6" stroke="#888" stroke-width="1" opacity="0.60"/>
  <line x1="844.4" y1="581.7" x2="823.8" y2="539.6" stroke="#888" stroke-width="1" opacity="0.60"/>
  <line x1="843.4" y1="580.3" x2="824.2" y2="541.6" stroke="#888" stroke-width="1" opacity="0.60"/>
  <line x1="841.9" y1="578.4" x2="824.6" y2="543.6" stroke="#888" stroke-width="1" opacity="0.58"/>
  <line x1="839.2" y1="577.2" x2="825.0" y2="545.5" stroke="#888" stroke-width="1" opacity="0.53"/>
  <line x1="843.1" y1="547.7" x2="825.4" y2="547.2" stroke="#888" stroke-width="1" opacity="0.32"/>
  <line x1="842.7" y1="547.4" x2="825.7" y2="548.9" stroke="#888" stroke-width="1" opacity="0.31"/>
  <line x1="841.5" y1="548.6" x2="826.1" y2="550.4" stroke="#888" stroke-width="1" opacity="0.29"/>
  <line x1="839.7" y1="567.5" x2="826.4" y2="551.9" stroke="#888" stroke-width="1" opacity="0.35"/>
  <line x1="840.4" y1="571.5" x2="826.7" y2="553.3" stroke="#888" stroke-width="1" opacity="0.38"/>
  <line x1="841.3" y1="574.4" x2="827.0" y2="554.6" stroke="#888" stroke-width="1" opacity="0.40"/>
  <line x1="840.5" y1="573.3" x2="827.5" y2="555.8" stroke="#888" stroke-width="1" opacity="0.37"/>
  <line x1="839.0" y1="571.2" x2="827.9" y2="557.0" stroke="#888" stroke-width="1" opacity="0.32"/>
  <line x1="838.0" y1="569.3" x2="828.4" y2="558.2" stroke="#888" stroke-width="1" opacity="0.28"/>
  <line x1="837.5" y1="569.7" x2="829.0" y2="559.3" stroke="#888" stroke-width="1" opacity="0.26"/>
  <line x1="836.8" y1="569.8" x2="829.6" y2="560.4" stroke="#888" stroke-width="1" opacity="0.25"/>
  <line x1="835.7" y1="568.0" x2="830.2" y2="561.5" stroke="#888" stroke-width="1" opacity="0.20"/>
  <line x1="835.2" y1="567.1" x2="830.7" y2="562.3" stroke="#888" stroke-width="1" opacity="0.18"/>
  <line x1="835.7" y1="568.0" x2="831.3" y2="563.1" stroke="#888" stroke-width="1" opacity="0.18"/>
  <line x1="836.2" y1="568.7" x2="831.8" y2="563.9" stroke="#888" stroke-width="1" opacity="0.18"/>
  <line x1="835.5" y1="569.6" x2="832.4" y2="564.6" stroke="#888" stroke-width="1" opacity="0.17"/>
  <line x1="834.6" y1="568.3" x2="832.9" y2="565.2" stroke="#888" stroke-width="1" opacity="0.14"/>
  <line x1="834.1" y1="567.3" x2="833.3" y2="565.7" stroke="#888" stroke-width="1" opacity="0.12"/>
  <line x1="833.9" y1="567.0" x2="833.8" y2="566.1" stroke="#888" stroke-width="1" opacity="0.11"/>
  <line x1="833.6" y1="566.7" x2="834.2" y2="566.5" stroke="#888" stroke-width="1" opacity="0.11"/>
  <line x1="833.4" y1="566.5" x2="834.6" y2="566.9" stroke="#888" stroke-width="1" opacity="0.12"/>
  <line x1="80" y1="696" x2="104" y2="696" stroke="#1b6ca8" stroke-width="3" stroke-dasharray="6 4"/><text x="112" y="700" font-family="Arial, sans-serif" font-size="13" fill="#333">Drone GNSS path (SRT)</text>
  <line x1="340" y1="696" x2="364" y2="696" stroke="#1a9850" stroke-width="3"/><text x="372" y="700" font-family="Arial, sans-serif" font-size="13" fill="#333">Ground-truth camera-center (geometry)</text>
  <line x1="640" y1="696" x2="664" y2="696" stroke="#d73027" stroke-width="3"/><text x="672" y="700" font-family="Arial, sans-serif" font-size="13" fill="#333">Estimated camera-center (Viterbi + smoothing w=19)</text>
  <text x="80" y="728" font-family="Arial, sans-serif" font-size="12" fill="#777">Grey lines connect ground-truth to estimated camera-center per frame. Darker = larger error. Local XY coordinates in metres (origin = first SRT point).</text>
  <line x1="822.3" y1="560" x2="890.0" y2="560" stroke="#444" stroke-width="2"/>
  <text x="856.2" y="554" font-family="Arial, sans-serif" font-size="12" fill="#444" text-anchor="middle">50 m</text>
</svg>
